<mxfile host="app.diagrams.net" agent="Mozilla/5.0 (Windows NT 10.0; Win64; x64) AppleWebKit/537.36 (KHTML, like Gecko) Chrome/131.0.0.0 Safari/537.36 Edg/131.0.0.0" version="25.0.3">
  <diagram name="Page-1" id="oKn0hnXVgSk-dFPJLeWP">
    <mxGraphModel dx="786" dy="1611" grid="1" gridSize="10" guides="1" tooltips="1" connect="1" arrows="1" fold="1" page="1" pageScale="1" pageWidth="850" pageHeight="1100" math="0" shadow="0">
      <root>
        <mxCell id="0" />
        <mxCell id="1" parent="0" />
        <mxCell id="JFJE9_WZ0sGR8ScL9FYa-3" value="" style="edgeStyle=orthogonalEdgeStyle;rounded=0;orthogonalLoop=1;jettySize=auto;html=1;" edge="1" parent="1" source="JFJE9_WZ0sGR8ScL9FYa-1">
          <mxGeometry relative="1" as="geometry">
            <mxPoint x="400" y="210" as="targetPoint" />
          </mxGeometry>
        </mxCell>
        <mxCell id="JFJE9_WZ0sGR8ScL9FYa-1" value="Inicio" style="ellipse;whiteSpace=wrap;html=1;aspect=fixed;" vertex="1" parent="1">
          <mxGeometry x="330" y="-20" width="140" height="140" as="geometry" />
        </mxCell>
        <mxCell id="JFJE9_WZ0sGR8ScL9FYa-6" value="" style="edgeStyle=orthogonalEdgeStyle;rounded=0;orthogonalLoop=1;jettySize=auto;html=1;" edge="1" parent="1" source="JFJE9_WZ0sGR8ScL9FYa-4" target="JFJE9_WZ0sGR8ScL9FYa-5">
          <mxGeometry relative="1" as="geometry" />
        </mxCell>
        <mxCell id="JFJE9_WZ0sGR8ScL9FYa-4" value="Mostrar mensaje: &quot;Por favor, ingresar las medidas de la pieza del mueble (en cms): &quot;" style="shape=parallelogram;perimeter=parallelogramPerimeter;whiteSpace=wrap;html=1;fixedSize=1;" vertex="1" parent="1">
          <mxGeometry x="270" y="210" width="260" height="120" as="geometry" />
        </mxCell>
        <mxCell id="JFJE9_WZ0sGR8ScL9FYa-8" value="" style="edgeStyle=orthogonalEdgeStyle;rounded=0;orthogonalLoop=1;jettySize=auto;html=1;" edge="1" parent="1" source="JFJE9_WZ0sGR8ScL9FYa-5" target="JFJE9_WZ0sGR8ScL9FYa-7">
          <mxGeometry relative="1" as="geometry" />
        </mxCell>
        <mxCell id="JFJE9_WZ0sGR8ScL9FYa-5" value="Convertir medida_en_pulgadas = medida_en_cms / 2.54&amp;nbsp;" style="whiteSpace=wrap;html=1;" vertex="1" parent="1">
          <mxGeometry x="260" y="420" width="280" height="100" as="geometry" />
        </mxCell>
        <mxCell id="JFJE9_WZ0sGR8ScL9FYa-10" value="" style="edgeStyle=orthogonalEdgeStyle;rounded=0;orthogonalLoop=1;jettySize=auto;html=1;" edge="1" parent="1" source="JFJE9_WZ0sGR8ScL9FYa-7" target="JFJE9_WZ0sGR8ScL9FYa-9">
          <mxGeometry relative="1" as="geometry" />
        </mxCell>
        <mxCell id="JFJE9_WZ0sGR8ScL9FYa-7" value="Mostrar las medidas convertidas en pulgadas al usuario" style="shape=parallelogram;perimeter=parallelogramPerimeter;whiteSpace=wrap;html=1;fixedSize=1;" vertex="1" parent="1">
          <mxGeometry x="260" y="600" width="280" height="100" as="geometry" />
        </mxCell>
        <mxCell id="JFJE9_WZ0sGR8ScL9FYa-9" value="Fin" style="ellipse;whiteSpace=wrap;html=1;" vertex="1" parent="1">
          <mxGeometry x="330" y="760" width="140" height="140" as="geometry" />
        </mxCell>
      </root>
    </mxGraphModel>
  </diagram>
</mxfile>
